<svg width="58" height="58" viewBox="0 0 58 58" fill="none" xmlns="http://www.w3.org/2000/svg">
<path fill-rule="evenodd" clip-rule="evenodd" d="M41.6133 0.833252H16.3599L15.4694 0.838465C13.8961 0.857842 12.6376 0.932667 11.4932 1.08673C3.42722 1.98904 0.806641 5.9598 0.806641 16.3599V33.2133L0.811858 34.0007C0.941137 43.5568 3.49507 47.4037 10.9142 48.4148L11.5264 48.4906C12.7443 48.6549 14.126 48.7284 15.9064 48.7387L41.6133 48.74C43.6315 48.74 45.1224 48.6693 46.4801 48.4865C54.4426 47.5958 57.0985 43.7147 57.1653 33.6101L57.1666 16.3599C57.1666 5.95982 54.546 1.98904 46.4468 1.08263C45.1275 0.904655 43.6158 0.833252 41.6133 0.833252ZM16.3599 3.83325H41.6133L42.4474 3.83802C43.7831 3.85411 44.856 3.91175 45.8003 4.02444L46.6166 4.12593C52.484 4.91598 54.1188 7.51697 54.1656 15.9772L54.1666 33.2133C54.1666 42.236 52.4764 44.7971 46.1131 45.5092C44.9736 45.6623 43.7191 45.7294 42.0416 45.7388L16.3599 45.74C14.6244 45.74 13.3061 45.684 12.173 45.5488L11.3566 45.4473C5.48923 44.6573 3.8545 42.0563 3.80768 33.596L3.80664 16.3599C3.80664 7.4661 5.44891 4.85064 11.5902 4.09568L11.8601 4.06402C13.0893 3.89893 14.4798 3.83325 16.3599 3.83325ZM44.5265 19.1868C44.5265 18.3583 43.855 17.6868 43.0265 17.6868H33.2132C32.3848 17.6868 31.7132 18.3583 31.7132 19.1868C31.7132 20.0152 32.3848 20.6868 33.2132 20.6868H43.0265C43.855 20.6868 44.5265 20.0152 44.5265 19.1868ZM43.0533 33.1265C43.8817 33.1265 44.5533 33.7981 44.5533 34.6265C44.5533 35.455 43.8817 36.1265 43.0533 36.1265H14.9733C14.1449 36.1265 13.4733 35.455 13.4733 34.6265C13.4733 33.7981 14.1449 33.1265 14.9733 33.1265H43.0533ZM43.8333 55.6666C43.8333 54.8382 43.1618 54.1666 42.3333 54.1666H15.6667C14.8382 54.1666 14.1667 54.8382 14.1667 55.6666C14.1667 56.495 14.8382 57.1666 15.6667 57.1666H42.3333C43.1618 57.1666 43.8333 56.495 43.8333 55.6666ZM16.2098 16.4667C17.6826 16.4667 18.8765 17.6606 18.8765 19.1334C18.8765 20.5495 17.7727 21.7078 16.3785 21.7948L16.1859 21.8C14.7131 21.8 13.5192 20.6061 13.5192 19.1334C13.5192 17.7173 14.623 16.559 16.0172 16.472L16.2098 16.4667ZM27.676 19.1334C27.676 17.6606 26.4821 16.4667 25.0093 16.4667L24.8167 16.472C23.4225 16.559 22.3187 17.7173 22.3187 19.1334C22.3187 20.6061 23.5126 21.8 24.9854 21.8L25.1779 21.7948C26.5721 21.7078 27.676 20.5495 27.676 19.1334Z" fill="url(#paint0_linear_0_329)"/>
<defs>
<linearGradient id="paint0_linear_0_329" x1="-16.9581" y1="9.71142" x2="0.791358" y2="66.0496" gradientUnits="userSpaceOnUse">
<stop stop-color="#E5A5FF"/>
<stop offset="1" stop-color="#5E9BFF"/>
</linearGradient>
</defs>
</svg>
