<svg width="58" height="58" viewBox="0 0 58 58" fill="none" xmlns="http://www.w3.org/2000/svg">
<path fill-rule="evenodd" clip-rule="evenodd" d="M28.92 0.833252C13.364 0.833252 0.753334 13.4439 0.753334 28.9999C0.753334 44.5559 13.364 57.1666 28.92 57.1666C36.6267 57.1666 43.6105 54.0715 48.6962 49.0564C48.7541 49.0132 48.8096 48.9652 48.8621 48.9125C48.9142 48.8603 48.9616 48.8053 49.0043 48.7479C54.003 43.6646 57.0867 36.6924 57.0867 28.9999C57.0867 21.3076 54.0031 14.3354 49.0045 9.2522C48.9617 9.19467 48.9143 9.13952 48.8621 9.08724C48.8095 9.03444 48.7539 8.98639 48.6959 8.94307C43.6102 3.92825 36.6265 0.833252 28.92 0.833252ZM45.6358 10.1862C41.1908 6.234 35.3358 3.83325 28.92 3.83325C22.511 3.83325 16.6616 6.22894 12.2183 10.1737L20.5439 18.4758C22.858 16.6141 25.7989 15.4999 29 15.4999C32.1671 15.4999 35.0794 16.5905 37.382 18.4166L45.6358 10.1862ZM39.5122 20.5291C41.3811 22.8454 42.5 25.792 42.5 28.9999C42.5 32.2078 41.3811 35.1544 39.5123 37.4707L47.7558 45.6909C51.6948 41.249 54.0867 35.4038 54.0867 28.9999C54.0867 22.596 51.6948 16.7508 47.7557 12.3089L39.5122 20.5291ZM45.6358 47.8136L37.3821 39.5832C35.0795 41.4093 32.1671 42.4999 29 42.4999C25.7989 42.4999 22.8579 41.3857 20.5439 39.524L12.2183 47.8261C16.6615 51.7709 22.511 54.1666 28.92 54.1666C35.3358 54.1666 41.1908 51.7658 45.6358 47.8136ZM18.4285 37.3968C16.5953 35.0919 15.5 32.1738 15.5 28.9999C15.5 25.826 16.5953 22.9079 18.4285 20.603L10.0968 12.2948C6.15026 16.7385 3.75333 22.5893 3.75333 28.9999C3.75333 35.4105 6.15024 41.2613 10.0967 45.705L18.4285 37.3968ZM29 18.4999C34.799 18.4999 39.5 23.2009 39.5 28.9999C39.5 34.7989 34.799 39.4999 29 39.4999C23.201 39.4999 18.5 34.7989 18.5 28.9999C18.5 23.2009 23.201 18.4999 29 18.4999Z" fill="url(#paint0_linear_0_351)"/>
<defs>
<linearGradient id="paint0_linear_0_351" x1="-17.003" y1="9.71142" x2="0.753333" y2="66.0448" gradientUnits="userSpaceOnUse">
<stop stop-color="#E5A5FF"/>
<stop offset="1" stop-color="#5E9BFF"/>
</linearGradient>
</defs>
</svg>
