<svg width="58" height="48" viewBox="0 0 58 48" fill="none" xmlns="http://www.w3.org/2000/svg">
<path fill-rule="evenodd" clip-rule="evenodd" d="M13.56 0.046875H30.4133C39.6401 0.046875 43.1187 3.49723 43.1399 12.6887L48.1943 9.14334C52.8211 5.91136 57.1666 8.18067 57.1666 13.8397V34.1597C57.1666 39.826 52.8112 42.0884 48.1919 38.8277L43.1383 35.2829L43.1383 35.5752C43.0508 44.5595 39.5348 47.9535 30.4133 47.9535H13.56C5.17243 47.9535 0.833313 42.7483 0.833313 35.2269V12.7735C0.833313 3.51845 4.30489 0.046875 13.56 0.046875ZM43.1397 16.3525L43.139 26.3201V31.619L49.9183 36.3742C52.494 38.1924 54.0944 37.4312 54.1642 34.3719L54.1666 34.1597V13.8397C54.1666 10.6051 52.5494 9.76058 49.9147 11.6011L43.1397 16.3525ZM30.4133 3.04688H13.56C5.96174 3.04688 3.83331 5.1753 3.83331 12.7735V35.2269C3.83331 41.1999 6.96235 44.9535 13.56 44.9535L30.735 44.9522C38.057 44.8913 40.14 42.7054 40.14 35.2269L40.1387 12.4512C40.0798 5.32757 38.0273 3.17119 31.0513 3.05217L30.4133 3.04688ZM27.6666 11.8333C24.6291 11.8333 22.1666 14.2958 22.1666 17.3333C22.1666 20.3709 24.6291 22.8333 27.6666 22.8333C30.7042 22.8333 33.1666 20.3709 33.1666 17.3333C33.1666 14.2958 30.7042 11.8333 27.6666 11.8333ZM27.6666 14.8333C29.0474 14.8333 30.1666 15.9526 30.1666 17.3333C30.1666 18.714 29.0474 19.8333 27.6666 19.8333C26.2859 19.8333 25.1666 18.714 25.1666 17.3333C25.1666 15.9526 26.2859 14.8333 27.6666 14.8333Z" fill="url(#paint0_linear_0_397)"/>
<defs>
<linearGradient id="paint0_linear_0_397" x1="-16.923" y1="7.597" x2="-3.75209" y2="56.7328" gradientUnits="userSpaceOnUse">
<stop stop-color="#E5A5FF"/>
<stop offset="1" stop-color="#5E9BFF"/>
</linearGradient>
</defs>
</svg>
