<svg width="52" height="58" viewBox="0 0 52 58" fill="none" xmlns="http://www.w3.org/2000/svg">
<path fill-rule="evenodd" clip-rule="evenodd" d="M16.8333 2.33325C16.8333 1.50482 16.1618 0.833252 15.3333 0.833252C14.5049 0.833252 13.8333 1.50482 13.8333 2.33325V4.87914C5.09525 5.4264 0.5 10.8412 0.5 19.6666V42.3333C0.5 51.6507 5.62191 57.1666 15.3333 57.1666H36.6667C46.3781 57.1666 51.5 51.6507 51.5 42.3333V19.6666C51.5 10.8412 46.9047 5.4264 38.1667 4.87914V2.33325C38.1667 1.50482 37.4951 0.833252 36.6667 0.833252C35.8382 0.833252 35.1667 1.50482 35.1667 2.33325V4.83325H16.8333V2.33325ZM13.8333 7.88483V10.3333C13.8333 11.1617 14.5049 11.8333 15.3333 11.8333C16.1618 11.8333 16.8333 11.1617 16.8333 10.3333V7.83325H35.1667V10.3333C35.1667 11.1617 35.8382 11.8333 36.6667 11.8333C37.4951 11.8333 38.1667 11.1617 38.1667 10.3333V7.88483C45.1488 8.38163 48.5 12.4567 48.5 19.6666V19.7398H3.5V19.6666C3.5 12.4567 6.85118 8.38163 13.8333 7.88483ZM3.5 22.7398V42.3333C3.5 50.0415 7.33047 54.1666 15.3333 54.1666H36.6667C44.6695 54.1666 48.5 50.0415 48.5 42.3333V22.7398H3.5ZM35.8765 31.5331C36.9811 31.5331 37.8765 32.4286 37.8765 33.5331C37.8765 34.5875 37.0606 35.4513 36.0258 35.5276L35.8525 35.5331C34.748 35.5331 33.8525 34.6377 33.8525 33.5331C33.8525 32.4788 34.6684 31.615 35.7033 31.5386L35.8765 31.5331ZM37.8765 41.5331C37.8765 40.4286 36.9811 39.5331 35.8765 39.5331L35.7033 39.5386C34.6684 39.615 33.8525 40.4788 33.8525 41.5331C33.8525 42.6377 34.748 43.5331 35.8525 43.5331L36.0258 43.5276C37.0606 43.4513 37.8765 42.5875 37.8765 41.5331ZM26.0119 31.5331C27.1165 31.5331 28.0119 32.4286 28.0119 33.5331C28.0119 34.5875 27.196 35.4513 26.1612 35.5276L25.988 35.5331C24.8834 35.5331 23.988 34.6377 23.988 33.5331C23.988 32.4788 24.8038 31.615 25.8387 31.5386L26.0119 31.5331ZM28.0119 41.5331C28.0119 40.4286 27.1165 39.5331 26.0119 39.5331L25.8387 39.5386C24.8038 39.615 23.988 40.4788 23.988 41.5331C23.988 42.6377 24.8834 43.5331 25.988 43.5331L26.1612 43.5276C27.196 43.4513 28.0119 42.5875 28.0119 41.5331ZM16.1421 31.5331C17.2467 31.5331 18.1421 32.4286 18.1421 33.5331C18.1421 34.5875 17.3262 35.4513 16.2914 35.5276L16.1182 35.5331C15.0136 35.5331 14.1182 34.6377 14.1182 33.5331C14.1182 32.4788 14.934 31.615 15.9689 31.5386L16.1421 31.5331ZM18.1421 41.5331C18.1421 40.4286 17.2467 39.5331 16.1421 39.5331L15.9689 39.5386C14.934 39.615 14.1182 40.4788 14.1182 41.5331C14.1182 42.6377 15.0136 43.5331 16.1182 43.5331L16.2914 43.5276C17.3262 43.4513 18.1421 42.5875 18.1421 41.5331Z" fill="url(#paint0_linear_0_369)"/>
<defs>
<linearGradient id="paint0_linear_0_369" x1="-15.5753" y1="9.71142" x2="3.65545" y2="64.9461" gradientUnits="userSpaceOnUse">
<stop stop-color="#E5A5FF"/>
<stop offset="1" stop-color="#5E9BFF"/>
</linearGradient>
</defs>
</svg>
