<svg width="24" height="24" viewBox="0 0 24 24" fill="none" xmlns="http://www.w3.org/2000/svg">
<path fill-rule="evenodd" clip-rule="evenodd" d="M23.9991 11.3934C23.9989 11.5954 23.9987 11.7976 23.9987 12C23.9987 12.2265 23.999 12.4527 23.9993 12.6787V12.6787C24.0015 14.1063 24.0036 15.5254 23.9206 16.9534C23.8275 18.8747 23.3923 20.5768 21.9843 21.9848C20.5794 23.3897 18.8743 23.8281 16.9531 23.9211C15.501 24.0028 14.0582 24.0012 12.6063 23.9996C12.4044 23.9993 12.2022 23.9991 11.9998 23.9991C11.7978 23.9991 11.596 23.9993 11.3943 23.9996C9.94444 24.0012 8.50126 24.0028 7.04653 23.9211C5.12527 23.8281 3.42314 23.3927 2.01522 21.9848C0.610293 20.5798 0.172005 18.8747 0.0789442 16.9534C-0.00276236 15.5011 -0.00116102 14.0557 0.000446126 12.6051C0.000669468 12.4035 0.000892923 12.2018 0.000892923 12C0.000892923 11.7982 0.000669405 11.5965 0.00044603 11.3949C-0.00116108 9.9449 -0.00276074 8.50157 0.0789442 7.04666C0.172005 5.12536 0.607292 3.42321 2.01522 2.01525C3.42014 0.610307 5.12527 0.172003 7.04653 0.0789459C8.49868 -0.00275945 9.94158 -0.00116164 11.3935 0.000446192C11.5954 0.00066977 11.7975 0.000893542 11.9998 0.000893542C12.2017 0.000893542 12.4034 0.000669867 12.605 0.000446337C14.055 -0.00116154 15.4982 -0.00276191 16.9531 0.0789459C18.8743 0.172003 20.5765 0.607302 21.9843 2.01525C23.3893 3.4202 23.8275 5.12536 23.9206 7.04666C24.0023 8.49875 24.0007 9.94156 23.9991 11.3934ZM7.99514 12C7.99514 9.7965 9.79333 7.9983 11.9968 7.9983C14.2002 7.9983 15.9984 9.7965 15.9984 12C15.9984 14.2035 14.2002 16.0018 11.9968 16.0018C9.79333 16.0018 7.99514 14.2035 7.99514 12ZM11.9968 18.1572C8.58954 18.1572 5.83973 15.4073 5.83973 12C5.83973 8.59271 8.58954 5.84285 11.9968 5.84285C15.404 5.84285 18.1538 8.59271 18.1538 12C18.1538 15.4073 15.404 18.1572 11.9968 18.1572ZM16.968 5.59068C16.968 6.38622 17.6105 7.02865 18.406 7.02865C18.5949 7.02889 18.782 6.99186 18.9566 6.91968C19.1311 6.84749 19.2897 6.74158 19.4233 6.608C19.5569 6.47444 19.6628 6.31582 19.735 6.14124C19.8071 5.96668 19.8441 5.77958 19.8439 5.59068C19.8439 4.79514 19.2015 4.1527 18.406 4.1527C17.6105 4.1527 16.968 4.79514 16.968 5.59068Z" fill="white"/>
</svg>
