<svg width="87" height="87" viewBox="0 0 87 87" fill="none" xmlns="http://www.w3.org/2000/svg">
<rect x="0.620361" y="0.8396" width="85.9195" height="86.0726" rx="24.6591" fill="url(#paint0_linear_2_110)"/>
<path d="M60.1231 56.5268C59.8338 57.1406 59.4594 57.7203 58.9658 58.2659C58.1318 59.1866 57.2128 59.8516 56.1746 60.2778C55.1534 60.7041 54.0472 60.9257 52.8558 60.9257C51.1198 60.9257 49.2647 60.5165 47.3074 59.6811C45.3501 58.8456 43.3929 57.7203 41.4527 56.3052C39.4954 54.873 37.6403 53.2874 35.8703 51.5312C34.1172 49.758 32.5344 47.8996 31.1218 45.9559C29.7262 44.0122 28.6029 42.0685 27.786 40.1419C26.969 38.1982 26.5605 36.3398 26.5605 34.5666C26.5605 33.4072 26.7648 32.2989 27.1733 31.276C27.5817 30.2359 28.2285 29.2811 29.1305 28.4286C30.2198 27.3545 31.4111 26.8259 32.6706 26.8259C33.1471 26.8259 33.6237 26.9282 34.0492 27.1328C34.4917 27.3374 34.8831 27.6443 35.1895 28.0876L39.138 33.6629C39.4444 34.0892 39.6656 34.4813 39.8188 34.8564C39.972 35.2145 40.0571 35.5725 40.0571 35.8965C40.0571 36.3057 39.9379 36.7149 39.6997 37.107C39.4784 37.4992 39.155 37.9084 38.7466 38.3176L37.4531 39.6645C37.2659 39.852 37.1808 40.0737 37.1808 40.3465C37.1808 40.4829 37.1978 40.6022 37.2318 40.7386C37.2829 40.875 37.3339 40.9773 37.368 41.0796C37.6743 41.6423 38.2019 42.3754 38.9508 43.262C39.7167 44.1486 40.5336 45.0523 41.4186 45.9559C42.3377 46.8596 43.2227 47.695 44.1247 48.4622C45.0098 49.2124 45.7416 49.7239 46.3203 50.0308C46.4054 50.0649 46.5075 50.1161 46.6266 50.1672C46.7628 50.2184 46.8989 50.2354 47.0521 50.2354C47.3414 50.2354 47.5627 50.1331 47.7499 49.9456L49.0434 48.6668C49.4689 48.2406 49.8774 47.9166 50.2688 47.712C50.6603 47.4734 51.0517 47.354 51.4772 47.354C51.8006 47.354 52.141 47.4222 52.5154 47.5756C52.8898 47.7291 53.2813 47.9507 53.7068 48.2406L59.3402 52.2473C59.7827 52.5542 60.0891 52.9123 60.2763 53.3385C60.4465 53.7648 60.5486 54.191 60.5486 54.6684C60.5486 55.2822 60.4125 55.913 60.1231 56.5268Z" stroke="white" stroke-width="2" stroke-linecap="round" stroke-linejoin="round"/>
<path d="M54.6429 38.7609C54.6429 37.7379 53.843 36.1693 52.6516 34.8906C51.5623 33.7142 50.1157 32.7935 48.686 32.7935" stroke="white" stroke-width="2" stroke-linecap="round" stroke-linejoin="round"/>
<path d="M60.5997 38.7609C60.5997 32.1625 55.2726 26.8259 48.686 26.8259" stroke="white" stroke-width="2" stroke-linecap="round" stroke-linejoin="round"/>
<defs>
<linearGradient id="paint0_linear_2_110" x1="-42.3394" y1="22.3577" x2="0.742862" y2="108.369" gradientUnits="userSpaceOnUse">
<stop stop-color="#6EE1FF"/>
<stop offset="1" stop-color="#099EE5"/>
</linearGradient>
</defs>
</svg>
