<svg width="55" height="21" viewBox="0 0 55 21" fill="none" xmlns="http://www.w3.org/2000/svg">
<path fill-rule="evenodd" clip-rule="evenodd" d="M20.7756 0H16.4129V20.6693H20.7756V0ZM15.3502 1.37795H10.0988L4.36269 8.57087V1.37795H0V20.6693H4.36269V14.7441L5.9785 12.7874L10.3681 20.6693H15.4041L8.91389 9.23228L15.3502 1.37795ZM36.7206 5.89764V20.6693H33.058L32.681 18.7677C31.4692 20.4213 29.7456 21 28.2645 21C26.8641 21 25.4907 20.2283 24.5481 19.0433C23.3632 17.5 23.2555 15.626 23.2555 13.5591V5.89764H27.6182V13.3937C27.6182 14.3583 27.6182 15.4882 27.9413 16.2323C28.2645 16.9764 28.9377 17.252 29.6648 17.252C30.6074 17.252 31.7654 16.7283 32.3579 15.7087V5.89764H36.7206ZM39.3077 20.6693H42.9702L43.3203 18.7953C44.3167 20.5315 46.3365 21 47.7638 21C51.5071 21 54.3348 17.5827 54.3348 13.3386C54.3348 9.06693 51.5071 5.56693 47.7907 5.56693C46.4981 5.56693 44.7207 5.98032 43.6704 7.27559V0H39.3077V20.6693ZM46.7674 9.31496C45.6363 9.31496 44.5591 9.67323 43.6704 10.9961V15.874C44.613 16.9488 45.5825 17.252 46.7135 17.252C48.8949 17.252 49.9182 15.1299 49.9182 13.2283C49.9182 11.2441 48.7333 9.31496 46.7674 9.31496Z" fill="#030402"/>
<mask id="mask0_0_251" style="mask-type:luminance" maskUnits="userSpaceOnUse" x="0" y="0" width="55" height="21">
<path fill-rule="evenodd" clip-rule="evenodd" d="M20.7756 0H16.4129V20.6693H20.7756V0ZM15.3502 1.37795H10.0988L4.36269 8.57087V1.37795H0V20.6693H4.36269V14.7441L5.9785 12.7874L10.3681 20.6693H15.4041L8.91389 9.23228L15.3502 1.37795ZM36.7206 5.89764V20.6693H33.058L32.681 18.7677C31.4692 20.4213 29.7456 21 28.2645 21C26.8641 21 25.4907 20.2283 24.5481 19.0433C23.3632 17.5 23.2555 15.626 23.2555 13.5591V5.89764H27.6182V13.3937C27.6182 14.3583 27.6182 15.4882 27.9413 16.2323C28.2645 16.9764 28.9377 17.252 29.6648 17.252C30.6074 17.252 31.7654 16.7283 32.3579 15.7087V5.89764H36.7206ZM39.3077 20.6693H42.9702L43.3203 18.7953C44.3167 20.5315 46.3365 21 47.7638 21C51.5071 21 54.3348 17.5827 54.3348 13.3386C54.3348 9.06693 51.5071 5.56693 47.7907 5.56693C46.4981 5.56693 44.7207 5.98032 43.6704 7.27559V0H39.3077V20.6693ZM46.7674 9.31496C45.6363 9.31496 44.5591 9.67323 43.6704 10.9961V15.874C44.613 16.9488 45.5825 17.252 46.7135 17.252C48.8949 17.252 49.9182 15.1299 49.9182 13.2283C49.9182 11.2441 48.7333 9.31496 46.7674 9.31496Z" fill="white"/>
</mask>
<g mask="url(#mask0_0_251)">
</g>
</svg>
