<svg width="94" height="94" viewBox="0 0 94 94" fill="none" xmlns="http://www.w3.org/2000/svg">
<path d="M58.75 86.1667C78.3333 86.1667 86.1667 78.3334 86.1667 58.75V35.25C86.1667 15.6667 78.3333 7.83337 58.75 7.83337H35.25C15.6667 7.83337 7.83334 15.6667 7.83334 35.25V58.75C7.83334 78.3334 15.6667 86.1667 35.25 86.1667H58.75Z" fill="white"/>
<mask id="mask0_0_485" style="mask-type:alpha" maskUnits="userSpaceOnUse" x="7" y="7" width="80" height="80">
<path d="M58.75 86.1667C78.3333 86.1667 86.1667 78.3334 86.1667 58.75V35.25C86.1667 15.6667 78.3333 7.83337 58.75 7.83337H35.25C15.6667 7.83337 7.83334 15.6667 7.83334 35.25V58.75C7.83334 78.3334 15.6667 86.1667 35.25 86.1667H58.75Z" fill="white"/>
</mask>
<g mask="url(#mask0_0_485)">
</g>
<path d="M36.6421 41.2033C36.6421 33.7225 41.9296 30.7066 48.3921 34.4275L53.4054 37.3258L58.4187 40.2241C64.8812 43.945 64.8812 50.055 58.4187 53.7758L53.4054 56.6741L48.3921 59.5725C41.9296 63.2933 36.6421 60.2383 36.6421 52.7966V47V41.2033Z" stroke="#292D32" stroke-width="3" stroke-linecap="round" stroke-linejoin="round"/>
</svg>
