<svg width="24" height="24" viewBox="0 0 24 24" fill="none" xmlns="http://www.w3.org/2000/svg">
<path d="M19.321 5.812C19.1691 5.73345 19.0212 5.64734 18.878 5.554C18.4616 5.27872 18.0799 4.9544 17.741 4.588C16.892 3.617 16.575 2.632 16.459 1.943H16.463C16.366 1.37 16.406 1 16.413 1H12.548V15.943C12.548 16.143 12.548 16.342 12.54 16.538C12.54 16.562 12.537 16.584 12.536 16.611C12.536 16.621 12.536 16.633 12.533 16.644V16.653C12.4924 17.189 12.3207 17.7069 12.0329 18.1609C11.7452 18.615 11.3503 18.9914 10.883 19.257C10.3954 19.5344 9.84391 19.6798 9.28301 19.679C7.48301 19.679 6.02301 18.211 6.02301 16.398C6.02301 14.584 7.48301 13.116 9.28301 13.116C9.62401 13.116 9.96301 13.17 10.287 13.276L10.292 9.34C9.30801 9.21305 8.30831 9.29147 7.35621 9.5703C6.40401 9.84913 5.52001 10.3223 4.76001 10.96C4.09381 11.5385 3.53371 12.2289 3.10501 13C2.94201 13.281 2.32601 14.412 2.25201 16.246C2.20501 17.286 2.51801 18.366 2.66701 18.811V18.821C2.76001 19.083 3.12401 19.979 3.71601 20.734C4.19331 21.34 4.75741 21.8724 5.39001 22.314V22.304L5.39901 22.314C7.26901 23.584 9.34401 23.501 9.34401 23.501C9.70301 23.486 10.906 23.501 12.272 22.854C13.787 22.136 14.649 21.067 14.649 21.067C15.2001 20.4281 15.6383 19.7 15.945 18.914C16.295 17.994 16.411 16.892 16.411 16.452V8.523C16.458 8.551 17.083 8.964 17.083 8.964C17.083 8.964 17.983 9.541 19.386 9.916C20.392 10.183 21.749 10.24 21.749 10.24V6.403C21.274 6.455 20.309 6.305 19.32 5.813L19.321 5.812Z" fill="white"/>
</svg>
