<svg width="24" height="24" viewBox="0 0 24 24" fill="none" xmlns="http://www.w3.org/2000/svg">
<path d="M23.643 5.18708C22.808 5.55708 21.911 5.80708 20.968 5.92008C21.941 5.33787 22.669 4.42154 23.016 3.34208C22.1019 3.88507 21.1014 4.26727 20.058 4.47208C19.3564 3.72294 18.4271 3.2264 17.4143 3.05955C16.4016 2.8927 15.3621 3.06487 14.4572 3.54933C13.5524 4.03379 12.8328 4.80344 12.4102 5.73878C11.9875 6.67412 11.8855 7.72283 12.12 8.72208C10.2677 8.62907 8.45561 8.14763 6.80141 7.30898C5.14721 6.47034 3.68791 5.29324 2.51801 3.85408C2.11801 4.54408 1.88801 5.34408 1.88801 6.19608C1.88761 6.96307 2.07641 7.71832 2.43791 8.39481C2.79931 9.0713 3.32221 9.6481 3.96001 10.0741C3.22031 10.0505 2.49691 9.8507 1.85001 9.4911V9.5511C1.84991 10.6268 2.22201 11.6695 2.90321 12.5021C3.58431 13.3347 4.53261 13.906 5.58701 14.1191C4.90081 14.3048 4.18131 14.3321 3.48301 14.1991C3.78051 15.1247 4.36001 15.9341 5.14041 16.514C5.92081 17.0939 6.86291 17.4153 7.83501 17.4331C6.18481 18.7285 4.14691 19.4312 2.04901 19.4281C1.67741 19.4282 1.30611 19.4065 0.937012 19.3631C3.06651 20.7323 5.54541 21.4589 8.07701 21.4561C16.647 21.4561 21.332 14.3581 21.332 8.20208C21.332 8.00208 21.327 7.80008 21.318 7.60008C22.2293 6.94105 23.0159 6.12497 23.641 5.19008L23.643 5.18708Z" fill="white"/>
</svg>
